<svg xmlns="http://www.w3.org/2000/svg" viewBox="0 0 1920 1080">
  <defs>
    <linearGradient id="sky" x1="0" y1="0" x2="1" y2="1"><stop stop-color="#0284c7"/><stop offset=".58" stop-color="#22d3ee"/><stop offset="1" stop-color="#86efac"/></linearGradient>
    <radialGradient id="glow"><stop stop-color="#fff" stop-opacity=".72"/><stop offset="1" stop-color="#fff" stop-opacity="0"/></radialGradient>
  </defs>
  <rect width="1920" height="1080" fill="url(#sky)"/>
  <circle cx="1460" cy="210" r="360" fill="url(#glow)"/>
  <path d="M0 760 C310 620 520 770 770 670 C1020 570 1260 760 1540 620 C1690 545 1810 570 1920 520 V1080 H0Z" fill="#0f766e" opacity=".72"/>
  <path d="M0 865 C390 735 690 930 1040 785 C1370 650 1660 840 1920 735 V1080 H0Z" fill="#064e3b" opacity=".78"/>
  <g fill="none" stroke="#fff" opacity=".18">
    <path d="M160 250 H820"/><path d="M1100 360 H1740"/><path d="M330 430 H1100"/>
  </g>
  <circle cx="158" cy="250" r="8" fill="#C00000"/><circle cx="1100" cy="360" r="8" fill="#C00000"/>
</svg>
